<svg width="31" height="31" viewBox="0 0 31 31" fill="none" xmlns="http://www.w3.org/2000/svg" transform="rotate(90)">
<circle cx="15.5" cy="15.5" r="15.5" fill="#A9B8C3"></circle>
<path d="M19.5 12C19.5 11.7239 19.2761 11.5 19 11.5L14.5 11.5C14.2239 11.5 14 11.7239 14 12C14 12.2761 14.2239 12.5 14.5 12.5L18.5 12.5L18.5 16.5C18.5 16.7761 18.7239 17 19 17C19.2761 17 19.5 16.7761 19.5 16.5L19.5 12ZM12 19L12.3536 19.3536L19.3536 12.3536L19 12L18.6464 11.6464L11.6464 18.6464L12 19Z" fill="black"></path>
</svg>